<mxfile host="app.diagrams.net" modified="2023-11-21T22:55:46.601Z" agent="Mozilla/5.0 (Windows NT 10.0; Win64; x64) AppleWebKit/537.36 (KHTML, like Gecko) Chrome/119.0.0.0 Safari/537.36" etag="LDpJcVQjmEKxFkKzg4aU" version="21.7.5" type="github">
  <diagram id="prtHgNgQTEPvFCAcTncT" name="Page-1">
    <mxGraphModel dx="1247" dy="1889" grid="1" gridSize="10" guides="1" tooltips="1" connect="1" arrows="1" fold="1" page="1" pageScale="1" pageWidth="827" pageHeight="1169" math="0" shadow="0">
      <root>
        <mxCell id="0" />
        <mxCell id="1" parent="0" />
        <mxCell id="zymzvHSK9OD_TtViWcV5-14" style="edgeStyle=orthogonalEdgeStyle;rounded=0;orthogonalLoop=1;jettySize=auto;html=1;entryX=0.5;entryY=0;entryDx=0;entryDy=0;" edge="1" parent="1">
          <mxGeometry relative="1" as="geometry">
            <mxPoint x="100" y="90" as="sourcePoint" />
            <mxPoint x="100" y="180" as="targetPoint" />
          </mxGeometry>
        </mxCell>
        <mxCell id="zymzvHSK9OD_TtViWcV5-16" value="Cliente seleciona pratos e faz pedido" style="rounded=1;whiteSpace=wrap;html=1;" vertex="1" parent="1">
          <mxGeometry x="40" y="30" width="120" height="60" as="geometry" />
        </mxCell>
        <mxCell id="zymzvHSK9OD_TtViWcV5-36" style="edgeStyle=orthogonalEdgeStyle;rounded=0;orthogonalLoop=1;jettySize=auto;html=1;entryX=0.5;entryY=0;entryDx=0;entryDy=0;" edge="1" parent="1" source="zymzvHSK9OD_TtViWcV5-35" target="zymzvHSK9OD_TtViWcV5-16">
          <mxGeometry relative="1" as="geometry" />
        </mxCell>
        <mxCell id="zymzvHSK9OD_TtViWcV5-35" value="" style="strokeWidth=2;html=1;shape=mxgraph.flowchart.start_2;whiteSpace=wrap;" vertex="1" parent="1">
          <mxGeometry x="85" y="-100" width="30" height="30" as="geometry" />
        </mxCell>
        <mxCell id="zymzvHSK9OD_TtViWcV5-37" value="Início" style="text;html=1;align=center;verticalAlign=middle;resizable=0;points=[];autosize=1;strokeColor=none;fillColor=none;" vertex="1" parent="1">
          <mxGeometry x="35" y="-100" width="50" height="30" as="geometry" />
        </mxCell>
        <mxCell id="zymzvHSK9OD_TtViWcV5-46" style="edgeStyle=orthogonalEdgeStyle;rounded=0;orthogonalLoop=1;jettySize=auto;html=1;entryX=0;entryY=0.5;entryDx=0;entryDy=0;" edge="1" parent="1" source="zymzvHSK9OD_TtViWcV5-44" target="zymzvHSK9OD_TtViWcV5-45">
          <mxGeometry relative="1" as="geometry" />
        </mxCell>
        <mxCell id="zymzvHSK9OD_TtViWcV5-44" value="Sistema recebe pedido" style="rounded=1;whiteSpace=wrap;html=1;" vertex="1" parent="1">
          <mxGeometry x="40" y="180" width="120" height="60" as="geometry" />
        </mxCell>
        <mxCell id="zymzvHSK9OD_TtViWcV5-49" style="edgeStyle=orthogonalEdgeStyle;rounded=0;orthogonalLoop=1;jettySize=auto;html=1;entryX=0.5;entryY=0;entryDx=0;entryDy=0;" edge="1" parent="1" source="zymzvHSK9OD_TtViWcV5-45" target="zymzvHSK9OD_TtViWcV5-50">
          <mxGeometry relative="1" as="geometry">
            <mxPoint x="380" y="290" as="targetPoint" />
          </mxGeometry>
        </mxCell>
        <mxCell id="zymzvHSK9OD_TtViWcV5-45" value="Restaurante verifica disponibilidade dos itens" style="rounded=1;whiteSpace=wrap;html=1;" vertex="1" parent="1">
          <mxGeometry x="320" y="180" width="120" height="60" as="geometry" />
        </mxCell>
        <mxCell id="zymzvHSK9OD_TtViWcV5-58" style="edgeStyle=orthogonalEdgeStyle;rounded=0;orthogonalLoop=1;jettySize=auto;html=1;" edge="1" parent="1" source="zymzvHSK9OD_TtViWcV5-48" target="zymzvHSK9OD_TtViWcV5-57">
          <mxGeometry relative="1" as="geometry" />
        </mxCell>
        <mxCell id="zymzvHSK9OD_TtViWcV5-48" value="Restaurante inicia preparo" style="rounded=1;whiteSpace=wrap;html=1;" vertex="1" parent="1">
          <mxGeometry x="520" y="290" width="120" height="60" as="geometry" />
        </mxCell>
        <mxCell id="zymzvHSK9OD_TtViWcV5-53" style="edgeStyle=orthogonalEdgeStyle;rounded=0;orthogonalLoop=1;jettySize=auto;html=1;entryX=0;entryY=0.5;entryDx=0;entryDy=0;" edge="1" parent="1" source="zymzvHSK9OD_TtViWcV5-50" target="zymzvHSK9OD_TtViWcV5-48">
          <mxGeometry relative="1" as="geometry" />
        </mxCell>
        <mxCell id="zymzvHSK9OD_TtViWcV5-54" value="Se disponivel" style="edgeLabel;html=1;align=center;verticalAlign=middle;resizable=0;points=[];" vertex="1" connectable="0" parent="zymzvHSK9OD_TtViWcV5-53">
          <mxGeometry x="-0.1746" y="-1" relative="1" as="geometry">
            <mxPoint as="offset" />
          </mxGeometry>
        </mxCell>
        <mxCell id="zymzvHSK9OD_TtViWcV5-55" style="edgeStyle=orthogonalEdgeStyle;rounded=0;orthogonalLoop=1;jettySize=auto;html=1;entryX=0;entryY=0.5;entryDx=0;entryDy=0;" edge="1" parent="1" source="zymzvHSK9OD_TtViWcV5-50" target="zymzvHSK9OD_TtViWcV5-16">
          <mxGeometry relative="1" as="geometry" />
        </mxCell>
        <mxCell id="zymzvHSK9OD_TtViWcV5-56" value="Se não disponiveis" style="edgeLabel;html=1;align=center;verticalAlign=middle;resizable=0;points=[];" vertex="1" connectable="0" parent="zymzvHSK9OD_TtViWcV5-55">
          <mxGeometry x="-0.447" relative="1" as="geometry">
            <mxPoint as="offset" />
          </mxGeometry>
        </mxCell>
        <mxCell id="zymzvHSK9OD_TtViWcV5-50" value="" style="rhombus;whiteSpace=wrap;html=1;" vertex="1" parent="1">
          <mxGeometry x="360" y="310" width="40" height="20" as="geometry" />
        </mxCell>
        <mxCell id="zymzvHSK9OD_TtViWcV5-61" style="edgeStyle=orthogonalEdgeStyle;rounded=0;orthogonalLoop=1;jettySize=auto;html=1;entryX=0;entryY=0.5;entryDx=0;entryDy=0;" edge="1" parent="1" source="zymzvHSK9OD_TtViWcV5-57" target="zymzvHSK9OD_TtViWcV5-60">
          <mxGeometry relative="1" as="geometry">
            <mxPoint x="730" y="440" as="targetPoint" />
          </mxGeometry>
        </mxCell>
        <mxCell id="zymzvHSK9OD_TtViWcV5-62" value="Se enviado" style="edgeLabel;html=1;align=center;verticalAlign=middle;resizable=0;points=[];" vertex="1" connectable="0" parent="zymzvHSK9OD_TtViWcV5-61">
          <mxGeometry x="-0.1197" y="3" relative="1" as="geometry">
            <mxPoint x="-1" y="-1" as="offset" />
          </mxGeometry>
        </mxCell>
        <mxCell id="zymzvHSK9OD_TtViWcV5-57" value="Sistema envia notificação ao entregador" style="rounded=1;whiteSpace=wrap;html=1;" vertex="1" parent="1">
          <mxGeometry x="520" y="420" width="120" height="60" as="geometry" />
        </mxCell>
        <mxCell id="zymzvHSK9OD_TtViWcV5-59" value="Restaurante envia notificação a plataforma de pagamento" style="rounded=1;whiteSpace=wrap;html=1;" vertex="1" parent="1">
          <mxGeometry x="900" y="420" width="120" height="60" as="geometry" />
        </mxCell>
        <mxCell id="zymzvHSK9OD_TtViWcV5-63" style="edgeStyle=orthogonalEdgeStyle;rounded=0;orthogonalLoop=1;jettySize=auto;html=1;" edge="1" parent="1" source="zymzvHSK9OD_TtViWcV5-60" target="zymzvHSK9OD_TtViWcV5-59">
          <mxGeometry relative="1" as="geometry" />
        </mxCell>
        <mxCell id="zymzvHSK9OD_TtViWcV5-60" value="" style="rhombus;whiteSpace=wrap;html=1;" vertex="1" parent="1">
          <mxGeometry x="750" y="440" width="40" height="20" as="geometry" />
        </mxCell>
      </root>
    </mxGraphModel>
  </diagram>
</mxfile>
